{"accessors" : [{"bufferView" : 0, "byteOffset" : 0, "componentType" : 5123, "count" : 1494, "type" : "SCALAR", "max" : [1027], "min" : [0]}, {"bufferView" : 1, "byteOffset" : 0, "componentType" : 5126, "count" : 1028, "type" : "VEC3", "max" : [0.9525540471076965, 1.6610157489776611, 0.9163658618927002], "min" : [-1.015206217765808, -2.2737977504730225, -0.8351569771766663], "name" : "POSITION"}, {"bufferView" : 1, "byteOffset" : 12, "componentType" : 5126, "count" : 1028, "type" : "VEC3", "max" : [0.9997721314430237, 1.0000044107437134, 0.9997720718383789], "min" : [-0.9997721314430237, -1.0000044107437134, -0.9997721314430237], "name" : "NORMAL"}, {"bufferView" : 1, "byteOffset" : 24, "componentType" : 5126, "count" : 1028, "type" : "VEC2", "max" : [0.9984984993934631, 0.9984984993934631], "min" : [0.0015015015378594398, 0.0015015006065368652], "name" : "TEXCOORD_0"}, {"bufferView" : 0, "byteOffset" : 2988, "componentType" : 5123, "count" : 1380, "type" : "SCALAR", "max" : [1003], "min" : [0]}, {"bufferView" : 2, "byteOffset" : 0, "componentType" : 5126, "count" : 1004, "type" : "VEC3", "max" : [0.32346439361572266, 2.2737977504730225, 0.6735144257545471], "min" : [-0.7384355664253235, -1.7459962368011475, -0.38838547468185425], "name" : "POSITION"}, {"bufferView" : 2, "byteOffset" : 12, "componentType" : 5126, "count" : 1004, "type" : "VEC3", "max" : [0.9997721314430237, 1.0000044107437134, 0.9997720718383789], "min" : [-0.9997721314430237, -1.0000044107437134, -0.9997721314430237], "name" : "NORMAL"}, {"bufferView" : 2, "byteOffset" : 24, "componentType" : 5126, "count" : 1004, "type" : "VEC2", "max" : [0.9984984993934631, 0.9984984993934631], "min" : [0.0015015015378594398, 0.0015015006065368652], "name" : "TEXCOORD_0"}, {"bufferView" : 0, "byteOffset" : 5748, "componentType" : 5123, "count" : 6378, "type" : "SCALAR", "max" : [4227], "min" : [0]}, {"bufferView" : 3, "byteOffset" : 0, "componentType" : 5126, "count" : 4228, "type" : "VEC3", "max" : [0.36536744236946106, 1.6373549699783325, 0.7154175043106079], "min" : [-0.7803386449813843, -1.7325735092163086, -0.43028852343559265], "name" : "POSITION"}, {"bufferView" : 3, "byteOffset" : 12, "componentType" : 5126, "count" : 4228, "type" : "VEC3", "max" : [0.9997721910476685, 1.0000044107437134, 0.9997721314430237], "min" : [-0.9997721910476685, -1.0000044107437134, -0.9997721314430237], "name" : "NORMAL"}, {"bufferView" : 3, "byteOffset" : 24, "componentType" : 5126, "count" : 4228, "type" : "VEC2", "max" : [0.9984984993934631, 0.9984984993934631], "min" : [0.0015015015378594398, 0.0015015006065368652], "name" : "TEXCOORD_0"}, {"bufferView" : 0, "byteOffset" : 18504, "componentType" : 5123, "count" : 288, "type" : "SCALAR", "max" : [191], "min" : [0]}, {"bufferView" : 4, "byteOffset" : 0, "componentType" : 5126, "count" : 192, "type" : "VEC3", "max" : [0.07907618582248688, 1.6252038478851318, 0.4291260540485382], "min" : [-0.4940474033355713, 1.2002793550491333, -0.14399710297584534], "name" : "POSITION"}, {"bufferView" : 4, "byteOffset" : 12, "componentType" : 5126, "count" : 192, "type" : "VEC3", "max" : [0.9979017972946167, 1.0000042915344238, 0.9979017376899719], "min" : [-0.9979017376899719, -1.0000044107437134, -0.9979017972946167], "name" : "NORMAL"}, {"bufferView" : 4, "byteOffset" : 24, "componentType" : 5126, "count" : 192, "type" : "VEC2", "max" : [0.9984984993934631, 0.9151651859283447], "min" : [0.1311311274766922, 0.11261260509490967], "name" : "TEXCOORD_0"}, {"bufferView" : 0, "byteOffset" : 19080, "componentType" : 5123, "count" : 2844, "type" : "SCALAR", "max" : [1895], "min" : [0]}, {"bufferView" : 5, "byteOffset" : 0, "componentType" : 5126, "count" : 1896, "type" : "VEC3", "max" : [0.13781003654003143, 0.07219003140926361, 0.628699541091919], "min" : [-0.6986750960350037, -1.2066338062286377, -0.31547480821609497], "name" : "POSITION"}, {"bufferView" : 5, "byteOffset" : 12, "componentType" : 5126, "count" : 1896, "type" : "VEC3", "max" : [0.9997721314430237, 1.0000044107437134, 0.9997720718383789], "min" : [-0.9997721314430237, -1.0000044107437134, -0.9997721314430237], "name" : "NORMAL"}, {"bufferView" : 5, "byteOffset" : 24, "componentType" : 5126, "count" : 1896, "type" : "VEC2", "max" : [0.9984984993934631, 0.9984984993934631], "min" : [0.0015015015378594398, 0.0015015006065368652], "name" : "TEXCOORD_0"}, {"bufferView" : 0, "byteOffset" : 24768, "componentType" : 5123, "count" : 360, "type" : "SCALAR", "max" : [239], "min" : [0]}, {"bufferView" : 6, "byteOffset" : 0, "componentType" : 5126, "count" : 240, "type" : "VEC3", "max" : [0.10444102436304092, 0.00608757883310318, 0.607264518737793], "min" : [-0.6945163607597351, -1.144370436668396, -0.3117377460002899], "name" : "POSITION"}, {"bufferView" : 6, "byteOffset" : 12, "componentType" : 5126, "count" : 240, "type" : "VEC3", "max" : [0.9979017972946167, 1.0000042915344238, 0.9979017376899719], "min" : [-0.9979017972946167, -1.0000044107437134, -0.9979017972946167], "name" : "NORMAL"}, {"bufferView" : 6, "byteOffset" : 24, "componentType" : 5126, "count" : 240, "type" : "VEC2", "max" : [0.9984984993934631, 0.9151651859283447], "min" : [0.1311311274766922, 0.11261260509490967], "name" : "TEXCOORD_0"}, {"bufferView" : 0, "byteOffset" : 25488, "componentType" : 5123, "count" : 828, "type" : "SCALAR", "max" : [503], "min" : [0]}, {"bufferView" : 7, "byteOffset" : 0, "componentType" : 5126, "count" : 504, "type" : "VEC3", "max" : [-0.5767421722412109, -1.5829471349716187, 0.33233681321144104], "min" : [-0.9515658020973206, -1.7341601848602295, -0.5305802822113037], "name" : "POSITION"}, {"bufferView" : 7, "byteOffset" : 12, "componentType" : 5126, "count" : 504, "type" : "VEC3", "max" : [0.9979017972946167, 1.0000044107437134, 0.9997720718383789], "min" : [-0.9979017972946167, -1.0000044107437134, -0.9997720718383789], "name" : "NORMAL"}, {"bufferView" : 7, "byteOffset" : 24, "componentType" : 5126, "count" : 504, "type" : "VEC2", "max" : [0.9984984993934631, 0.9984984993934631], "min" : [0.0015015015378594398, 0.09409409761428833], "name" : "TEXCOORD_0"}, {"bufferView" : 0, "byteOffset" : 27144, "componentType" : 5123, "count" : 432, "type" : "SCALAR", "max" : [287], "min" : [0]}, {"bufferView" : 8, "byteOffset" : 0, "componentType" : 5126, "count" : 288, "type" : "VEC3", "max" : [0.352397084236145, 1.2187176942825317, 0.7024471163749695], "min" : [-0.7673683166503906, 0.7567163705825806, -0.4173182249069214], "name" : "POSITION"}, {"bufferView" : 8, "byteOffset" : 12, "componentType" : 5126, "count" : 288, "type" : "VEC3", "max" : [0.9979017972946167, 1.0000042915344238, 0.9979017972946167], "min" : [-0.9979017972946167, -1.0000044107437134, -0.9979017972946167], "name" : "NORMAL"}, {"bufferView" : 8, "byteOffset" : 24, "componentType" : 5126, "count" : 288, "type" : "VEC2", "max" : [0.9984984993934631, 0.9151651859283447], "min" : [0.1311311274766922, 0.11261260509490967], "name" : "TEXCOORD_0"}, {"bufferView" : 0, "byteOffset" : 28008, "componentType" : 5123, "count" : 24, "type" : "SCALAR", "max" : [15], "min" : [0]}, {"bufferView" : 9, "byteOffset" : 0, "componentType" : 5126, "count" : 16, "type" : "VEC3", "max" : [1.6672124862670898, 1.4596848487854004, 0.48409900069236755], "min" : [1.0732136964797974, 1.4395235776901245, -0.13946397602558136], "name" : "POSITION"}, {"bufferView" : 9, "byteOffset" : 12, "componentType" : 5126, "count" : 16, "type" : "VEC3", "max" : [0, 1.0000044107437134, 0], "min" : [0, 1.0000044107437134, 0], "name" : "NORMAL"}, {"bufferView" : 9, "byteOffset" : 24, "componentType" : 5126, "count" : 16, "type" : "VEC2", "max" : [0.924424409866333, 0.18368369340896606], "min" : [0.12187187373638153, 0.057057082653045654], "name" : "TEXCOORD_0"}, {"bufferView" : 0, "byteOffset" : 28056, "componentType" : 5123, "count" : 504, "type" : "SCALAR", "max" : [503], "min" : [0]}, {"bufferView" : 10, "byteOffset" : 0, "componentType" : 5126, "count" : 504, "type" : "VEC3", "max" : [2.683443069458008, 1.4186948537826538, 2.4271368980407715], "min" : [-2.1916990280151367, 0.050305139273405075, -1.9832748174667358], "name" : "POSITION"}, {"bufferView" : 10, "byteOffset" : 12, "componentType" : 5126, "count" : 504, "type" : "VEC3", "max" : [0.9956750869750977, 1.0000044107437134, 0.9948321580886841], "min" : [-0.9866329431533813, -0.9988682866096497, -0.9968760013580322], "name" : "NORMAL"}, {"bufferView" : 10, "byteOffset" : 24, "componentType" : 5126, "count" : 504, "type" : "VEC2", "max" : [0.9892392158508301, 0.7007007002830505], "min" : [0.0755755752325058, 0.010760784149169922], "name" : "TEXCOORD_0"}, {"bufferView" : 0, "byteOffset" : 29064, "componentType" : 5123, "count" : 141, "type" : "SCALAR", "max" : [140], "min" : [0]}, {"bufferView" : 11, "byteOffset" : 0, "componentType" : 5126, "count" : 141, "type" : "VEC3", "max" : [3.2378807067871094, 0.8846384286880493, 2.8398749828338623], "min" : [-3.047121047973633, -1.4596848487854004, -2.6536383628845215], "name" : "POSITION"}, {"bufferView" : 11, "byteOffset" : 12, "componentType" : 5126, "count" : 141, "type" : "VEC3", "max" : [0.9891391396522522, 1.0000044107437134, 0.9948321580886841], "min" : [-0.9866329431533813, -0.9921520948410034, -0.9922996759414673], "name" : "NORMAL"}, {"bufferView" : 11, "byteOffset" : 24, "componentType" : 5126, "count" : 141, "type" : "VEC2", "max" : [0.9892392158508301, 0.5895895957946777], "min" : [0.12187187373638153, 0.010760784149169922], "name" : "TEXCOORD_0"}, {"bufferView" : 0, "byteOffset" : 29348, "componentType" : 5123, "count" : 297, "type" : "SCALAR", "max" : [229], "min" : [0]}, {"bufferView" : 12, "byteOffset" : 0, "componentType" : 5126, "count" : 230, "type" : "VEC3", "max" : [3.6321840286254883, 1.2955350875854492, 3.148853302001953], "min" : [-3.4269838333129883, -0.41289570927619934, -3.015514612197876], "name" : "POSITION"}, {"bufferView" : 12, "byteOffset" : 12, "componentType" : 5126, "count" : 230, "type" : "VEC3", "max" : [0.9919145703315735, 1.0000044107437134, 0.9948321580886841], "min" : [-0.9866329431533813, -0.9988682866096497, -0.9962109327316284], "name" : "NORMAL"}, {"bufferView" : 12, "byteOffset" : 24, "componentType" : 5126, "count" : 230, "type" : "VEC2", "max" : [0.9892392158508301, 0.6451451778411865], "min" : [0.12187187373638153, 0.010760784149169922], "name" : "TEXCOORD_0"}, {"bufferView" : 0, "byteOffset" : 29944, "componentType" : 5123, "count" : 840, "type" : "SCALAR", "max" : [839], "min" : [0]}, {"bufferView" : 13, "byteOffset" : 0, "componentType" : 5126, "count" : 840, "type" : "VEC3", "max" : [2.7952234745025635, 1.3585516214370728, 2.5984296798706055], "min" : [-2.741445779800415, -1.0531636476516724, -1.3779997825622559], "name" : "POSITION"}, {"bufferView" : 13, "byteOffset" : 12, "componentType" : 5126, "count" : 840, "type" : "VEC3", "max" : [0.9956750869750977, 1.0000044107437134, 0.9948321580886841], "min" : [-0.9866329431533813, -0.9988682866096497, -0.9968760013580322], "name" : "NORMAL"}, {"bufferView" : 13, "byteOffset" : 24, "componentType" : 5126, "count" : 840, "type" : "VEC2", "max" : [0.9892392158508301, 0.9984984993934631], "min" : [0.0015015015378594398, 0.010760784149169922], "name" : "TEXCOORD_0"}], "asset" : {"generator" : "Aspose.3D 24.12.0", "version" : "2.0"}, "buffers" : [{"uri" : "buffer.bin", "byteLength" : 387232}], "bufferViews" : [{"buffer" : 0, "byteOffset" : 0, "byteLength" : 31624, "target" : 34963}, {"buffer" : 0, "byteOffset" : 31628, "byteLength" : 32896, "byteStride" : 32, "target" : 34962}, {"buffer" : 0, "byteOffset" : 64528, "byteLength" : 32128, "byteStride" : 32, "target" : 34962}, {"buffer" : 0, "byteOffset" : 96660, "byteLength" : 135296, "byteStride" : 32, "target" : 34962}, {"buffer" : 0, "byteOffset" : 231960, "byteLength" : 6144, "byteStride" : 32, "target" : 34962}, {"buffer" : 0, "byteOffset" : 238108, "byteLength" : 60672, "byteStride" : 32, "target" : 34962}, {"buffer" : 0, "byteOffset" : 298784, "byteLength" : 7680, "byteStride" : 32, "target" : 34962}, {"buffer" : 0, "byteOffset" : 306468, "byteLength" : 16128, "byteStride" : 32, "target" : 34962}, {"buffer" : 0, "byteOffset" : 322600, "byteLength" : 9216, "byteStride" : 32, "target" : 34962}, {"buffer" : 0, "byteOffset" : 331820, "byteLength" : 512, "byteStride" : 32, "target" : 34962}, {"buffer" : 0, "byteOffset" : 332336, "byteLength" : 16128, "byteStride" : 32, "target" : 34962}, {"buffer" : 0, "byteOffset" : 348468, "byteLength" : 4512, "byteStride" : 32, "target" : 34962}, {"buffer" : 0, "byteOffset" : 352984, "byteLength" : 7360, "byteStride" : 32, "target" : 34962}, {"buffer" : 0, "byteOffset" : 360348, "byteLength" : 26880, "byteStride" : 32, "target" : 34962}], "materials" : [{"name" : "lighthouse_main", "pbrMetallicRoughness" : {"baseColorFactor" : [0.7379106283187866, 0.791297972202301, 0.8148466944694519, 1], "metallicFactor" : 1, "roughnessFactor" : 1}, "emissiveFactor" : [0.2793518304824829, 0.29891616106033325, 0.307538241147995], "alphaMode" : "OPAQUE", "doubleSided" : false}], "meshes" : [{"primitives" : [{"attributes" : {"POSITION" : 1, "NORMAL" : 2, "TEXCOORD_0" : 3}, "indices" : 0, "material" : 0, "mode" : 4}, {"attributes" : {"POSITION" : 5, "NORMAL" : 6, "TEXCOORD_0" : 7}, "indices" : 4, "material" : 0, "mode" : 4}, {"attributes" : {"POSITION" : 9, "NORMAL" : 10, "TEXCOORD_0" : 11}, "indices" : 8, "material" : 0, "mode" : 4}, {"attributes" : {"POSITION" : 13, "NORMAL" : 14, "TEXCOORD_0" : 15}, "indices" : 12, "material" : 0, "mode" : 4}, {"attributes" : {"POSITION" : 17, "NORMAL" : 18, "TEXCOORD_0" : 19}, "indices" : 16, "material" : 0, "mode" : 4}, {"attributes" : {"POSITION" : 21, "NORMAL" : 22, "TEXCOORD_0" : 23}, "indices" : 20, "material" : 0, "mode" : 4}, {"attributes" : {"POSITION" : 25, "NORMAL" : 26, "TEXCOORD_0" : 27}, "indices" : 24, "material" : 0, "mode" : 4}, {"attributes" : {"POSITION" : 29, "NORMAL" : 30, "TEXCOORD_0" : 31}, "indices" : 28, "material" : 0, "mode" : 4}], "name" : "Cylinder"}, {"primitives" : [{"attributes" : {"POSITION" : 33, "NORMAL" : 34, "TEXCOORD_0" : 35}, "indices" : 32, "material" : 0, "mode" : 4}, {"attributes" : {"POSITION" : 37, "NORMAL" : 38, "TEXCOORD_0" : 39}, "indices" : 36, "material" : 0, "mode" : 4}, {"attributes" : {"POSITION" : 41, "NORMAL" : 42, "TEXCOORD_0" : 43}, "indices" : 40, "material" : 0, "mode" : 4}, {"attributes" : {"POSITION" : 45, "NORMAL" : 46, "TEXCOORD_0" : 47}, "indices" : 44, "material" : 0, "mode" : 4}, {"attributes" : {"POSITION" : 49, "NORMAL" : 50, "TEXCOORD_0" : 51}, "indices" : 48, "material" : 0, "mode" : 4}], "name" : "Cylinder.001"}], "nodes" : [{"matrix" : [1, 0, 0, 0, 0, 1, 0, 0, 0, 0, 1, 0, -0.28691649436950684, 3.508171796798706, 0.5223056674003601, 1], "mesh" : 0, "name" : "lighthouse"}, {"matrix" : [1, 0, 0, 0, 0, 1, 0, 0, 0, 0, 1, 0, -1.2278707027435303, 0.3226521611213684, 0.05121356248855591, 1], "mesh" : 1, "name" : "island"}], "scene" : 0, "scenes" : [{"nodes" : [0, 1]}]}